<?xml version="1.0" encoding="UTF-8"?>
<svg id="_图层_2" data-name="图层 2" xmlns="http://www.w3.org/2000/svg" viewBox="0 0 179.55 179.55">
  <defs>
    <style>
      .cls-1 {
        fill: #1e3464;
      }

      .cls-2 {
        fill: #f8f8f2;
      }
    </style>
  </defs>
  <g id="_图层_1-2" data-name="图层 1">
    <rect class="cls-1" width="179.55" height="179.55"/>
    <g>
      <path class="cls-2" d="M60.65,78.5c3.37-5.68,8.9-11.71,17.93-15.95.08-.05.17-.11.25-.16-15.52-18.58-26.13-2.85-26.13-2.85-9.53,1.18-9.3,4.75-9.3,4.75,11.92-.57,16.4,9.5,17.25,14.21"/>
      <path class="cls-2" d="M130.43,71.56c-.35.26-.71.5-1.08.72-22.55,13.56-56.33,10.87-70.49,35.94,25.09-12.38,68.63-3.64,72.35-37.24-.26.2-.52.39-.78.59"/>
      <path class="cls-2" d="M60.73,111.99c-13.09,6.76-15.47,23.09-15.5,26.08,18.61-5.3,32.31-26.32,35.74-32.02-7.32,1.38-14.44,3.09-20.24,5.94"/>
      <path class="cls-2" d="M125.74,51.99c-.23.16-.48.31-.72.46-.1.06-.2.13-.3.19-.15.09-.32.18-.48.27-.25.14-.5.28-.75.42-.03.01-.05.03-.08.04-.37.19-.74.38-1.12.55-.08.04-.17.08-.25.11-.22.1-.43.2-.65.29-6.71,2.93-16.83,4.98-32.27,8.93-32.22,8.25-30.03,37.54-30.03,37.54,23.98-32.37,87.58-14.43,75.55-59.32-1.95,4.27-5.04,7.91-8.91,10.51"/>
    </g>
  </g>
</svg>